<svg version="1.2" xmlns="http://www.w3.org/2000/svg" viewBox="0 0 5120 4207" width="500" height="411"><style>.a{fill:#3878df}.b{fill:#3f5ee3}.c{fill:#318dda}.d{fill:#2b9eda}</style><path class="a" d="m1008.1 3741c-57.1-18.5-95.2-46.2-133.8-99-22.8-31-32.1-57.1-70.7-198-16.3-59.9-37-133.3-45.7-163.2-8.2-30-21.8-78.9-29.9-108.8-8.2-30-32.7-118.1-54.4-195.9-22.3-77.8-64.7-231.8-95.2-342.7-30.5-110.5-57.1-208.4-59.8-217.1l-5.5-15.2 25.1 3.8c14.1 1.6 28.2 4.9 32 5.9 4.4 2.2 7.7-7 10.4-29.9l3.8-33.2h26.1 26.1l6.5 23.4c3.3 12.5 20.7 76.7 39.2 142.6 17.9 65.8 51.1 186 73.4 266.5 60.4 218.2 117 411.9 124.6 426.6 6.5 12.5 7.1 11.9 17.9-21.8 10.4-30.5 45.2-155 77.3-274.2 5.4-20.7 35.3-130 65.8-242.1 29.9-112.1 63.1-235.5 73.4-274.7 10.3-38.6 20.1-75.1 21.8-80 2.1-7.1 8.7-9.8 21.7-9.8 14.7 0 18.5 2.2 18.5 10.9 0 11.4 10.4 14.7 19.1 6 8.1-7.1 73.4-12.5 73.4-5.5 0 9.3-24.5 102.9-74.5 287.8-25.6 94.2-65.3 244.9-88.7 334.6-23.4 89.8-57.6 220.9-76.1 291.1-59.3 227.4-70.8 273.6-70.8 289.4 0 34.3 34.9 78.3 74.6 95.2 13.6 5.4 62.5 7.1 219.2 7.1h201.2v16.8 16.9l-29.9-2.2c-27.7-1.6-29.9-1.1-29.9 10.9 0 11.4-2.2 12-40.8 12-33.7 0-43 2.2-51.7 10.9-6 5.9-15.8 10.8-21.2 10.8-6 0-12 2.2-13.6 4.9-7.1 11.5 13.6 16.9 59.8 16.4 26.7-0.6 83.3 1.1 126.2 3.2 76.7 3.8 77.3 3.8 77.3 16.9v13l-245.9-0.5c-220.8 0-249.6-1.1-276.3-9.8z"/><path class="a" d="m2761.2 3490.8c-120.2-2.2-219.8-4.9-221.4-6.6-3.8-3.8 10.9-5.4 230.6-24.5 238.2-20.1 493.3-40.2 521.1-40.2 8.1 0 12 3.3 12 10.9 0 8.7-3.9 10.8-16.9 10.8-14.7 0-16.3 1.1-10.3 8.2 3.8 4.4 13.6 8.2 22.3 8.2 14.1 0 15.7 1.6 15.7 19v19.1l-167-1.1c-92.4-0.6-265.9-2.2-386.1-3.8z"/><path class="a" d="m3926.2 2973.4c2.2-13.6 6-46.3 8.7-72.4 2.8-26.6 10.9-94.1 18.5-149.6 7.7-56 22.3-165.4 32.7-243.2 10.3-77.8 22.8-170.3 27.7-205.1 4.9-35.3 7.6-67.4 6-71.2-1.6-4.9-31.5-8.7-107.7-13.6-58.2-3.8-139.8-9.3-181.7-12-364.4-25.6-345.4-23.9-345.4-35.4 0-10.3 11.5-12.5 95.2-16.3 39.2-1.6 145.3-6.5 236.6-10.9 91.4-3.8 227.9-9.2 304.1-11.4l137.6-3.8-3.8 18.5c-18.5 91.4-122.4 489.1-177.3 681.7-43.5 152.8-57.7 192.6-51.2 144.7z"/><path class="a" d="m3284.4 2174.2l-27.2-3.3 26.7-4.3c14.7-2.2 41.9-3.8 60.9-3.8 27.2 0 34.8 1.6 34.8 8.1 0 6.6-7.1 8.2-33.7 7.1-19.1 0-46.3-2.2-61.5-3.8z"/><path class="a" d="m4272.7 2036.6l1.7-18-49-3.8c-26.6-2.7-170.2-10.3-318.2-18-350.8-17.9-824.6-45.7-846.9-48.9-10.9-2.2-17.9-6.6-17.9-10.9 0-4.4 2.7-8.2 6-8.2 3.2 0 9.2-3.8 13.6-8.1 4.8-4.4 17.4-8.2 28.2-8.2 10.9 0 171.9-3.8 357.4-8.1 185.5-3.9 467.8-9.3 627.1-11.5l289.4-3.8v12c0 8.1-3.3 11.4-13.1 11.4-16.3 0-47.3 10.9-56 19.6-8.1 8.2-9.2 65.3-1.6 70.2 3.3 1.6 5.4 14.1 5.4 27.7 0 22.3-1.1 24-14.1 24-12.5 0-13.6-1.7-12-17.4z"/><path class="a" d="m2899.9 1937c-43.5-2.7-81.1-7.1-83.3-8.7-3.2-3.8 107.2-9.8 175.7-9.8 38.1 0 39.2 0.5 39.2 13.6 0 15.2 13 15.2-131.6 4.9z"/><path class="a" d="m4456.6 1931.6c0-4.4-3.8-8.2-8.2-8.2-4.3 0-8.1-2.2-8.1-5.4 0-3.3-15.3-5.5-35.4-5.5-31.6 0-35.4-1.1-35.4-10.9 0-10.3 3.8-10.8 57.7-10.8 52.2 0 57.1 1 54.4 9.7-1.6 4.9-4.4 15.8-6.5 24.5-3.3 15.3-18.5 20.7-18.5 6.6z"/><path class="a" d="m3376.9 1738.4c-604.3-1.6-1099.3-3.2-1099.8-4.3-4.4-3.8-0.6-39.2 3.8-39.2 3.2 0 5.4-7.1 5.4-16.3 0-13.6-2.2-16.3-13-16.3-19.6 0-52.3-15.3-52.3-24.5 0-4.4-4.8-8.2-10.8-8.2-13.6 0-14.7-16.3-1.1-16.8 4.9-0.6 328.5-0.6 719 0 390.6 0 894.3 0.5 1119.4 0.5 405.3 0 409.1 0 409.1 10.9 0 9.2-3.8 10.9-21.8 10.9-21.7 0-21.7 0-21.7 20.6 0 14.7-3.9 24-14.7 33.8l-14.2 13.6 45.7 3.2c25.6 2.2 46.3 6 47.3 9.8 1.1 3.3 6.6 6 12.5 6 6.6 0 10.4 3.8 10.4 10.9 0 8.1-3.3 10.3-12 9.8-7.1-1.1-506.9-2.7-1111.2-4.4z"/><path class="a" d="m4538.2 1732.4c0-6.5 3.8-10.3 10.8-10.3 6 0 10.9-2.2 10.9-5.4 0-3.3 16.3-5.5 38.1-5.5 21.7 0 38.1 2.2 38.1 5.5 0 3.2 3.8 5.4 8.1 5.4 4.4 0 8.2 4.4 8.2 9.8 0 8.2-6.5 9.2-57.1 9.8-52.8 1.1-57.1 0-57.1-9.3z"/><path class="a" d="m4355.9 1537.7c-14.6-6-39.7-31.6-43.5-44.1-1.6-5.4-9.8-11.4-17.9-13.1-25-5.4-244.2-40.2-326.9-52.2-43.5-6-80-12.5-81.6-13.6-7.6-7.6 17.9-9.8 161-11.4 85.9-1.1 199.1-3.3 250.7-4.9 105.6-2.7 114.8-0.5 139.3 31.6 22.3 29.3 16.8 65.8-14.2 94.6-14.1 13.1-50 20.1-66.9 13.1z"/><path class="a" d="m4488.7 1299.9c-10.4-7-33.8-18.5-51.7-25.5l-32.1-12-1002.5-1.6c-856.1-1.1-1004-2.2-1010.6-8.7-4.3-4.4-7.6-18-7.6-30.5 0-23.4 9.3-38.1 24-38.1 4.9 0 8.7-3.8 8.7-8.2 0-4.3 2.7-8.1 5.4-8.1 3.3 0 5.4-7.6 5.4-16.3v-16.9l833.9 0.5 833.3 1.1 1.6-12.5c6-37.5-31.6-85.4-76.2-97.9-17.4-4.9-139.7-5.4-486.8-3.3-254.5 1.1-469.4 1.1-477.5-0.5-14.7-2.7-14.7-3.3-12-32.1 3.3-33.7 14.7-46.8 48.4-57.1 17.4-4.9 20.7-8.2 20.7-21.8v-15.2l415-0.6c227.9-0.5 427.5-1.6 443.8-2.7 123-8.2 245.9 91.4 260 210l4.4 35.4 94.1 1.6c86.5 1.1 93.5 2.2 93.5 11.4 0 8.7-6.5 10.4-47.3 13.6-32.6 2.2-50 6-53.8 11.4-7.1 9.8-40.8 10.9-50.1 1.7-3.2-3.3-8.1-4.4-10.3-2.2-6.5 6.5 8.7 13.1 39.7 16.9 15.8 1.6 40.8 9.2 54.9 15.7 14.2 7.1 35.4 14.2 46.3 16.4 33.1 6 80.5 30.4 87 44.6 3.3 7 9.2 13 13.6 13 4.3 0 7.1 6.6 7.1 16.4 0 9.2-0.6 16.3-1.1 15.7-1.1 0-10.4-6-21.2-13.6z"/><path class="a" d="m2305.4 1252.6c-22.3-8.7-51.7-27.2-51.7-32.1 0-2.2 10.9-4.4 24.5-4.4 20.6 0 24.4 1.7 24.4 10.9 0 6 2.8 10.9 5.5 10.9 3.2 0 5.4-2.2 5.4-5.4 0-2.7 8.7-5.5 19.1-5.5 17.4 0 19 1.1 19 16.4 0 14.1-1.6 16.3-14.7 15.7-8.7 0-22.8-3.2-31.5-6.5z"/><path class="a" d="m2351.6 1145.4c0-9.8 3.8-10.9 29.9-10.9 26.1 0 29.9 1.1 29.9 10.9 0 9.8-3.8 10.9-29.9 10.9-26.1 0-29.9-1.1-29.9-10.9z"/><path class="b" d="m1426.4 3747.5c-1.1-3.2-16.9-7.6-34.8-8.7-18-1.6-33.8-3.2-35.4-3.8-1.6-0.5-24.5-1.6-51.7-2.1-46.7-0.6-48.9-1.1-57.1-15.3-10.3-19-3.2-32.1 21.2-38.1 9.8-2.7 19.6-10.3 22.9-16.8 8.7-19.1 32.1-26.1 90.8-27.2 68.6-1.7 59.9-8.7-12.5-10.4-29.9-1.1 561.3-2.7 1314.1-4.3l1368.5-2.7 26.7-16.4c47.9-29.9 62.5-56 94.6-170.8 15.3-55.5 51.2-180.6 78.9-278 70.7-244.3 134.9-471.1 152.3-535.9 8.2-29.9 31-112 51.7-182.2 20.1-70.2 50.6-177.9 68-239.4 16.8-61.5 39.1-138.2 48.9-171.4 16.9-54.4 68-237.7 75.1-268.2 2.1-10.3 0-13-13.1-15.7-8.7-1.7-15.8-4.9-15.8-7.7 0-8.7-41.8-5.4-45.6 3.3-4.4 11.4-104.5 9.3-112.1-2.7-3.8-5.5-5.4-6-5.4-1.1 0 3.3-3.8 6.5-8.2 6.5-4.3 0-8.1-3.8-8.1-8.1 0-6.6-8.2-8.2-41.9-8.2-59.9 0-63.1-3.8-28.9-37 25.6-25 27.2-28.3 20.7-38.6-3.8-6.5-9.8-11.4-13.6-11.4-3.8 0-7.1-3.3-7.1-7.7 0-5.9 15.8-8.1 75.1-10.8 95.7-4.9 107.7-6.6 121.3-21.3 35.4-37.5 46.2-99 27.7-159.4-14.6-48.4-36.4-81.6-72.3-111.5-15.8-13-36.4-32.1-46.2-41.9-10.4-11.4-18.5-15.8-21.3-12.5-1.6 3.3-7 6-11.9 6-6.5 0-7.1-1.6-2.2-7.1 4.9-6 1.6-9.8-15.2-17.4-12-4.9-28.3-9.8-37-10.3-8.2-0.6-28.3-7.6-44.6-15.8-16.3-8.2-38.1-14.7-49-15.2-22.8-0.6-49.5-9.8-49.5-16.4 0-2.7-3.8-4.9-8.1-4.9-10.4 0-10.4-14.6-0.6-25 9.8-9.2 47.4-10.3 56.6-1.1 4.9 4.9 8.2 4.4 13.1-2.1 5.4-7.1 23.3-10.9 70.7-15.3l63.1-6 53.3 17.4c148.5 49.6 241.5 170.3 241.5 314 0 25-2.7 62-6 82.7l-6.5 37.5 18.5 15.2c10.3 8.2 29.9 26.1 44 39.7l25.6 24.5-8.2 29.9c-8.7 33.2-91.4 328.1-181.7 647.4-32.6 115.4-74.5 263.4-93 329.2-17.9 65.8-47.8 171.4-65.8 233.9-17.4 63.1-54.9 197.5-83.2 299.2-27.7 101.8-60.9 221.5-73.4 266.1-12 44.6-31 99-41.4 120.7-35.3 74.6-96.8 125.7-174 145.8-30.5 7.7-162.7 8.7-1304.3 8.7-843.7 0-1270.7-1.6-1270.7-5.4 0-3.3-15.2-5.4-35.3-5.4-24.5 0-35.4 2.1-35.4 7 0 4.9-1.6 4.4-4.9-1-3.8-6-4.9-6-7 0-1.7 5.4-3.3 5.4-4.9 1zm-78.9-95.2c-8.1-3.8-15.2-3.8-21.7 0.6-8.7 4.9-6.6 5.4 11.4 5.4 19 0 20.1-1.1 10.3-6z"/><path class="b" d="m975.5 3580c-3.8-4.4-4.4-8.2-1.1-8.2 2.7 0 8.1 3.8 11.9 8.2 3.9 4.3 4.4 8.1 1.1 8.1-2.7 0-8.1-3.8-11.9-8.1z"/><path class="b" d="m3262.7 3486.4c7.6-7.6 9.8-7.6 14.1-1.1 2.7 4.9 4.9 5.5 4.9 1.1 0-3.3 4.3-7.6 9.8-8.7 4.9-1.6 1.6-2.7-7.6-3.3-10.9-0.5-23.4-7-38.1-20.6l-21.2-20.7 15.2-1.6c8.2-1.1 14.7-4.4 14.7-7.1 0-2.7 8.2-4.4 18-4.4 9.2 0.6 52.7-1.6 96.2-4.9 43.5-3.2 125.7-8.7 182.2-11.9 57.2-3.3 135.5-8.2 174.1-10.9 39.2-2.7 106.6-6.5 151.2-8.7 44.1-2.2 80-5.5 80-7.1 0-4.9-165.9-25-318.2-38.6-150.7-13.6-233.4-22.3-235.6-24-2.7-3.2 118.6-13 265.5-22.3 326.9-19.5 323.1-19.5 332.3-29.9 4.9-5.4 13.6-35.3 20.1-66.4 58.2-282.3 108.3-516.2 164.3-760.5 62.6-274.2 87-385.2 87-393.9 0-4.9 2.2-7.6 5.5-6 3.2 1.7 5.4-0.5 5.4-4.9 0-4.3-2.2-9.8-5.4-11.4-8.2-4.9-7.1-94.7 1.6-102.8 15.2-15.8 50-22.3 112.6-20.7 34.3 0.5 63.1 3.3 64.2 6 1.1 2.7 6.5 3.8 11.9 2.2 6-1.7 10.9-0.6 10.9 1.6 0 17.4-203.4 749.1-293.1 1054.9-41.4 140.9-77.8 268.7-114.3 397.7-14.7 54.4-32.6 107.7-39.1 118.6l-11.5 19.6h-383.4c-357.4 0-382.4-0.6-374.2-9.3z"/><path class="b" d="m2593.6 3485.3l-16.3-3.8 15.2-3.3c8.2-1.6 14.7-1 14.7 1.7 0 2.2 5.5 5.4 12.5 6.5 9.8 1.6 9.8 2.2 1.1 2.2-6 0.5-17.9-1.1-27.2-3.3z"/><path class="b" d="m3960.5 2847.7c-13.6-7.6-12-13 2.7-13 9.8 0 12.5 2.7 10.4 9.7-1.1 4.9-2.8 9.3-3.3 9.3 0 0-4.9-2.7-9.8-6z"/><path class="b" d="m3960 2768.3c3.2-35.4 5.4-40.3 15.2-36.5 5.4 2.2 7.1 7.1 5.4 13.6-2.7 7.6-0.5 10.4 6.6 10.9 8.1 0 7.6 1.1-2.2 4.9-6.5 2.7-13.6 11.4-15.8 19-6 22.9-12 15.3-9.2-11.9z"/><path class="b" d="m3974.1 2724.2c-4.3-2.7-3.8-7.6 3.3-16.9l9.8-12.5-2.8 16.9c-1 9.2-2.7 16.9-3.2 16.9 0 0-3.3-2.2-7.1-4.4z"/><path class="b" d="m3977.9 2679.1c0-6 2.7-9.3 5.5-7.7 3.2 1.7 5.4 7.1 5.4 11.5 0 4.3-2.2 7.6-5.4 7.6-2.8 0-5.5-4.9-5.5-11.4z"/><path class="b" d="m4242.3 2007.7c2.1-4.3 6.5-8.1 10.8-8.1 4.4 0 7.7 3.8 7.7 8.1 0 4.4-4.9 8.2-10.9 8.2-7.1 0-9.8-2.7-7.6-8.2z"/><path class="b" d="m4119.3 2008.3c0-1.1 6-3.3 13.6-4.4 7.7-1.6 13.6-0.5 13.6 1.6 0 2.8-5.9 4.9-13.6 4.9-7.6 0-13.6-1-13.6-2.1z"/><path class="c" d="m567.5 2589.3c-3.2-8.2-4.9-21.2-4.3-28.8 1.6-10.9 3.2-7.7 8.1 13 7.1 30.5 4.9 39.2-3.8 15.8z"/><path class="c" d="m685.6 2583.3c-6-5.4-4.4-10.9 4.3-14.7 5.4-2.2 8.2 0.6 8.2 7.6 0 10.9-6 14.2-12.5 7.1z"/><path fill-rule="evenodd" class="c" d="m556.6 2543.6c-3 0-5.4-3.7-5.4-8.2 0-4.5 2.4-8.1 5.4-8.1 3.1 0 5.5 3.6 5.5 8.1 0 4.5-2.4 8.2-5.5 8.2z"/><path class="c" d="m546.9 2515.3c0.5-3.8-1.7-12-4.9-18.5-3.8-6-4.4-14.1-1.7-17.9 3.3-6 4.9-4.9 7.6 2.7 6.6 22.3 7.7 40.2 2.8 40.2-2.8 0-4.9-3.2-3.8-6.5z"/><path class="c" d="m576.8 2489.2c-2.2-7.6-3.8-21.2-3.8-31 0-27.2-38.1-49-38.1-21.8-0.6 31.6-18.5-27.2-108.3-355.2-18.4-67.5-42.9-155.6-54.3-195.9-12-40.2-30.5-109.3-41.4-154l-20.6-79.9 21.7-26.1c32.1-38.1 34.3-44.6 34.3-100.1 0-62.6 2.1-70.8 21.7-82.2 15.8-9.8 83.8-13 95.8-4.9 8.1 4.9 18.5 54.4 18.5 88.1 0 45.7 9.7 81.1 23.3 84.4 6.6 1.1 50.1 3.2 96.3 3.8 83.8 1.6 84.3 1.6 122.4 20.7 81 39.7 148.5 130.5 159.9 214.8 7.1 50.1 13.1 564.2 7.1 549.5-17.4-38.6-109.9-378.6-147.4-542.9-6.5-26.1-15.2-55-19.6-63.7-10.9-21.2-38.1-41.3-66.4-48.4-27.7-7.6-199-4.3-201.2 3.3-2.7 7.6 19 93 65.3 260 90.3 325.4 98.4 357.4 90.3 362.3-6 3.9-6 4.9 1 4.9 6 0 11.5 9.8 18 31.6 10.9 38.6 10.9 44.6 1.1 44.6-6.5 0-14.2-13-16.9-27.2 0-1.6-3.2-8.2-7.1-14.1-3.2-6.6-4.9-13.1-2.7-14.7 1.7-1.7 1.7-9.8-0.5-17.4-4.9-19.6-27.2-19.6-24 0 1.7 7.6 1.1 13.6-1 13.6-2.2 0-4.4 17.4-4.9 38.6-0.6 20.7-3.8 45.7-7.6 55.5l-7.1 17.4z"/><path class="c" d="m1096.8 2464.7c2.1-6 14.6-54.9 28.2-108.8 38.1-149.1 56.1-216 80-299.2 12-41.9 34.8-125.7 51.1-186.6 30.5-117 45.2-150.2 82.2-191.5 23.9-26.7 72.8-56.1 104.9-62.6 24.5-5.4 951.9-6.5 948.1-1.1-1.1 2.2-36.4 3.8-78.3 3.8-46.3 0-75.6 2.2-75.6 5.5 0 7 35.9 21.7 52.2 21.7 11.4 0 13 2.8 13 19.1v18.5l33.2 3.8c18.5 2.2 36.5 7.6 41.9 12.5 8.2 8.2 7.1 8.7-8.7 10.3-9.8 1.1-17.4 3.8-17.4 7.1 0 2.7 35.9 5.4 83.2 6 45.2 0.5 88.7 1.6 96.3 2.2 7.6 0.5 96.3 1.1 197.4 1.6 118.1 0.5 183.3 2.7 183.3 6 0 3.8-240.9 5.4-710.9 5.4-499.8 0-718 1.7-733.2 6-11.4 3.3-28.8 13.6-38.6 23.4-18 18-20.7 26.1-53.3 150.2-31 120.7-101.2 382.4-107.2 401.5-3.2 9.7-9.7 17.4-14.6 17.9-6 0-6.6 1.1-2.2 3.3 9.2 3.8 8.1 12.5-1.7 12.5-4.3 0-8.1 2.7-8.1 5.4 0 3.3 2.7 5.5 5.4 5.5 9.8 0 6 9.2-4.9 12.5-9.2 2.2-9.8 0.5-5.4-14.7 2.7-9.3 4.9-20.1 4.9-23.4 0-8.2-22.3-9.3-29.9-2.2-5.5 4.9-68 10.9-68 6.5 0-1.6 4.3-7.6 9.8-13.6l9.2-11.4-12.5 10.4c-6.5 5.9-10.9 14.1-9.8 17.9 1.7 3.8-1.6 15.2-7.6 24.5-5.4 9.8-14.1 35.4-19.6 56-4.9 21.2-11.4 40.8-14.7 43.5-3.2 3.9-3.8 1.7-2.1-5.4z"/><path fill-rule="evenodd" class="c" d="m657.3 2467.4c-4.5 0-8.2-2.4-8.2-5.4 0-3 3.7-5.5 8.2-5.5 4.5 0 8.1 2.5 8.1 5.5 0 3-3.6 5.4-8.1 5.4z"/><path class="c" d="m1232.7 2425.5c-3.8-1.6-7-8.7-7-15.7 0-9.3 3.2-13.1 10.8-13.1 6 0 10.9 3.3 10.4 7.1-0.6 13-7.6 23.9-14.2 21.7z"/><path class="c" d="m1022.2 2210.6c-1.6-7-3.2-175.7-3.2-375.3v-363.5h16.8c10.9 0 21.3 4.4 27.2 11.5l9.8 11.4 6.6-14.2c5.9-12.5 9.7-14.1 32-14.1h25.6l3.8 41.9c1.7 22.8 3.3 113.7 3.3 201.3v160.5l-18.5 60.4c-10.3 33.7-32.1 106.1-48.4 161.5-34.8 116.5-39.7 130.6-46.8 130.6-2.7 0-6-5.4-8.2-12z"/><path class="c" d="m3363.3 2170.9c0-5.4 5.4-8.1 15.2-8.7 8.2 0 22.3-0.5 32.1-1.1 16.3-1.1 16.9-0.5 7.1 8.7-13.6 12-54.4 13.1-54.4 1.1z"/><path class="c" d="m3218.6 1955.5c-4.9-8.2 1.1-12 18.5-12.5 11.4-0.6 15.2 1.6 13.6 7.6-2.7 9.8-26.7 13.6-32.1 4.9z"/><path class="c" d="m3281.7 1956.6c0-7.6 17.9-12 43-10.4 14.1 0.6 22.3 3.9 22.3 8.2 0 4.9-9.3 7.1-32.7 7.1-17.9 0-32.6-2.2-32.6-4.9z"/><path class="c" d="m3126.7 1952.2c-8.7-1.6-18.5-6-20.7-10.3-5.4-9.8-31-9.8-31 0 0 5.4-7.1 6.5-28.3 4.3-15.8-1.6-29.3-4.3-29.9-5.9-1.1-1.7-18.5-2.8-39.2-1.7-29.3 1.7-37.5 0-40.2-6.5-2.7-6 2.7-8.7 25-11.4 40.3-4.4 237.7-7.1 221.4-2.7-8.2 2.1-13.1 7-13.1 12.5 0.6 5.4-3.2 9.2-9.2 9.2-5.4 0-10.3 3.8-10.3 8.2 0 4.3-1.7 7.6-3.9 7.6-2.7-0.6-11.4-2.2-20.6-3.3z"/><path class="c" d="m2894.4 1935.9c-13-3.3-12.5-12.5 1.1-12.5 6 0 10.9 3.8 10.9 8.2 0 4.3-0.6 7.6-1.1 7.6-1.1-0.6-6-1.7-10.9-3.3z"/><path class="c" d="m4010.6 1428.9c0-2.8 3.8-6 8.1-8.2 4.9-1.6 8.2 0 8.2 4.9 0 4.4-3.8 8.2-8.2 8.2-4.3 0-8.1-2.2-8.1-4.9z"/><path class="c" d="m3941.5 1424c-7.1-1.1-12.5-3.8-12.5-5.5 0-2.1-9.3-3.2-20.2-2.1-11.4 1-30.4-0.6-42.4-3.3-17.9-4.4-9.8-5.5 46.2-6.5 37.6-0.6 74.6-2.2 82.7-3.3 7.6-1.1 15.8 0 18 3.3 1.6 2.7-1.7 5.4-8.2 5.4-6 0-12.5 3.8-14.1 8.2-2.2 4.3-7.1 8.1-11.5 8.1-4.8 0-7-3.2-4.8-8.1 3.8-9.8-7.1-10.9-15.3-1.1-3.2 3.8-11.4 6-17.9 4.9z"/><path class="c" d="m681.7 1396.2c0-10.3 18.5-16.8 49.5-16.8 13.1 0 15.8 2.1 15.8 13.6 0 13-1.6 13.6-32.6 13.6-28.3 0-32.7-1.1-32.7-10.4z"/><path class="c" d="m834 1393c0-12 2.2-13.6 21.3-13.6 36.4 0 54.9 5.9 54.9 16.8 0 9.3-4.4 10.4-38.1 10.4-37 0-38.1-0.6-38.1-13.6z"/><path class="c" d="m779.7 1248.8c0-18 1.6-21.8 10.8-21.8 9.3 0 10.9 3.8 10.9 21.8 0 17.9-1.6 21.8-10.9 21.8-9.2 0-10.8-3.9-10.8-21.8z"/><path class="c" d="m2335.3 1250.4c0-7.6-1.1-8.1-4.9-2.2-6.5 10.4-44.1 3.3-44.1-8.1 0-4.4-2.2-7.1-4.9-5.5-7.6 4.9-40.8-20.1-156.6-120.7-228.5-198.6-266-229.6-282.9-236.1-26.1-9.8-23.9-26.7 6.6-56.6 18.5-17.4 24.4-27.8 24.4-40.3v-16.3h-32.6c-28.8 0-32.6-1.1-32.6-10.9 0-9.2 3.8-10.9 26.6-10.9 41.9 0 69.6 15.8 153.4 88.2 42.4 36.4 113.7 97.4 157.7 134.9 44.1 37.5 103.9 88.7 133.3 113.2 29.4 25 59.3 47.8 66.9 51.1 8.2 3.3 52.2 5.4 102.8 4.9 97.4-1.1 132.2 6 50 10.3l-51.6 2.7-1.7 18c-1 9.2-3.8 17.4-7 17.4-2.7 0-4.9 3.8-4.9 8.2 0 4.3-3.8 8.1-8.7 8.1-10.4 0-24 13.1-24 23.4 0 8.7 19.6 15.8 35.9 12.5 5.5-1.1 25.1 0 43 2.2 32.1 3.8 31.6 3.8-17.4 4.9-40.8 0.6-50.6 2.2-50.6 8.7 0 6.5-7.6 8.2-38.1 8.2-32.6 0-38-1.7-38-9.3z"/><path class="c" d="m2383.1 1018.7c-12.5-4.4-99-75.7-203.4-167.1-126.7-111.5-221.4-192.5-238.2-205.1-9.8-7.6-24-12.5-36.5-12.5-11.4 0-23.9-1.6-28.8-3.2-10.9-4.4-11.4-18.5-0.5-18.5 6.5 0 8.1-7.6 8.1-35.4 0-27.7 1.6-35.4 8.2-35.4 4.3 0 8.1-2.1 8.1-5.4 0-2.7 4.9-5.4 10.9-5.4 8.2 0 10.9-3.8 10.9-13.6 0-23.4 31.5-17.4 81.6 15.7 23.9 15.8 52.7 40.3 230.6 196.4 47.9 41.9 109.9 95.8 138.7 119.7l51.7 43.5 364.9 2.8c200.2 1.6 359 4.3 352.5 6.5-12.5 3.3-17.4 15.2-7.1 15.2 3.3 0 5.5 4.9 5.5 10.4 0 7.6-7.1 13-26.7 19.6-32.1 10.3-46.8 22.3-51.6 42.4-2.8 12.5-1.7 14.7 8.7 14.7 15.7 0 29.9 8.7 23.9 14.7-5.5 5.4-696.2 5.9-711.5 0z"/><path class="d" d="m1024.4 2227c0-19.6 2.2-25.6 10.4-27.8 9.7-2.2 9.7-1.6 2.1 22.9-11.4 33.2-12.5 33.7-12.5 4.9z"/><path class="d" d="m321.1 1692.2c-9.2-40.8-9.2-41.4 2.7-57.1 15.3-21.3 18-20.7 6.6 1-7.6 14.7-7.6 21.3-2.2 50.1 3.3 18.5 7.6 36.4 8.7 40.3 1.1 3.2 0 6.5-2.7 6.5-2.2 0-8.2-18.5-13.1-40.8z"/><path class="d" d="m1021.2 1284.2l0.5-380.9 12.5-26.6c26.7-58.8 78.9-103.4 142.5-123.5 33.7-10.4 47.9-10.9 361.7-9.8 362.3 0.5 342.2-1.1 391.1 38.6 40.3 33.2 40.8 33.2 16.9 23.4-12-4.9-25.1-10.3-28.3-12-3.8-1.6-7.1 1.1-7.1 6 0 4.9-3.8 8.7-8.1 8.7-9.8 0-62.6 50.6-62.6 59.3 0 3.8-106.1 6-314.4 7.1l-314.4 1.6-19 13.1c-41.9 28.8-39.7 17.4-43.5 250.8-2.2 115.3-3.8 266.6-4.4 336.2-0.5 102.8-2.1 126.2-8.1 126.2-5.5 0-8.2-14.7-11.5-59.8-3.2-50.6-4.8-59.9-12.5-59.9-5.4 0-13.6 7.6-18.5 16.3-5.4 9.8-13.6 16.4-20.6 16.4-6 0-10.9 2.7-10.9 5.4 0 3.3-4.9 5.4-10.9 5.4-12 0-15.2-14.1-4.3-17.4 4.9-1.6 4.3-5.4-2.8-11.9-5.4-5.5-11.4-8.2-13.6-6-2.1 1.6-5.4 41.9-7 88.7-1.7 46.8-2.7-86-2.7-295.4z"/><path class="d" d="m495.7 1566c-5.4-1.1-9.8-4.4-9.8-6-1.1-35.4-11.9-101.8-17.4-105-13-8.7-51.1-5.5-64.7 5.4-7.1 5.5-15.2 10.4-18.5 10.4-2.7 0-6.5 4.9-8.7 10.3-2.7 6.5-4.3 1.1-4.3-14.7-1.1-58.8 58.2-138.2 127.2-171.9l37.6-18.5h119.1c108.8 0 119.1-1.1 121.3-9.3 1.6-5.4 3.2-144.1 3.8-309l1.1-299.2 15.7-32.6c32.7-66.4 98-113.2 173.6-124.1 26.6-3.8 192.5-3.8 512.3-0.5l473.2 4.9 23.4 12.5c14.2 7.6 21.8 14.7 19.6 18.5-2.2 3.8-1.6 4.3 2.2 2.2 3.3-2.2 12.5 0.5 20.1 5.4 9.8 6.5 12.5 10.3 7.6 13.6-3.8 2.2-13-0.5-20.6-6.5-13.1-9.3-15.8-9.8-38.1-1.6-20.7 7-26.7 7-38.1 1-10.3-5.4-13.6-5.4-15.2 0-1.6 3.3-6 6.6-10.4 6.6-9.2 0-10.3 14.1-0.5 17.9q7.3 3.3 0 3.3c-3.8 0.5-7.1 6.5-7.1 14.1 0 10.9 4.9 15.8 21.2 22.9 15.3 6.5 19.6 10.9 15.3 15.2-6.5 7.1-25.6 4.4-25.6-3.3 0-2.7-3.8-3.2-8.7-1-4.9 1.6-214.8 3.2-466.7 3.8l-458 0.5-20.6 13.6c-11.4 7.6-25 22.9-31 33.7-9.8 19.6-10.4 34.9-10.4 371.1 0 215.4-2.1 352-4.9 354.1-3.2 1.7-16.8 0-31-3.2-20.1-4.9-26.6-5.5-28.2-0.6-2.8 8.2-119.2 9.3-121.9 1.1-1.1-3.8-8.1-3.8-20.7 0-10.3 2.7-44.6 5.5-75.6 5.5-46.7 0-60.9 2.1-80.5 11.4-29.9 14.7-50.5 47.9-51.6 83.2 0 17.4-3.3 26.7-9.3 30.5-8.1 4.9-8.1 4.9 0 5.4 6 0 9.8 6 11.4 16.4 1.7 9.2 2.2 15.7 2.2 15.7-0.5-0.5-4.9-1.6-9.8-3.2zm1469.7-1034.8c0-7.6-15.2-17.9-22.8-15.2-4.4 2.2-3.8 3.2 2.7 3.2 4.9 0.6 9.2 4.4 9.2 8.7 0 4.4 2.7 8.2 5.5 8.2 3.2 0 5.4-2.2 5.4-4.9z"/><path class="d" d="m1876.7 898.4c-15.7-13.6-18.4-19.6-7.6-19.6 6.6 0.6 28.3 26.2 24.5 30-1.1 1.1-8.7-3.3-16.9-10.4z"/><path class="d" d="m1849 870.1c-1.6-4.3 0.5-7.6 4.9-7.6 10.9 0 15.2 9.3 6 12.5-4.4 1.7-9.3-0.5-10.9-4.9z"/><path class="d" d="m1991.5 685.7c-8.7-7.1-13-14.1-10.9-15.8 5.5-3.2 30 16.9 27.2 23.4-0.5 2.8-8.1-0.5-16.3-7.6z"/><path class="d" d="m1950.7 652c-13-8.7-16.3-18-6.5-18 7.6 0 22.3 15.3 20.1 21.2-1.1 2.8-7.1 1.1-13.6-3.2z"/><path class="d" d="m2049.7 579.6c-8.7-8.7-13.6-16.3-10.3-16.3 5.4 0.6 34.8 25 34.8 29.9 0 7.1-9.8 1.7-24.5-13.6z"/></svg>